<svg xmlns="http://www.w3.org/2000/svg" viewBox="0 0 96 96" role="img" aria-label="TG Forward">
  <defs>
    <linearGradient id="bg" x1="18" y1="14" x2="80" y2="84" gradientUnits="userSpaceOnUse">
      <stop offset="0" stop-color="#f8fbff" />
      <stop offset="0.52" stop-color="#dce9f6" />
      <stop offset="1" stop-color="#bfd3e8" />
    </linearGradient>
    <linearGradient id="mark" x1="28" y1="28" x2="70" y2="70" gradientUnits="userSpaceOnUse">
      <stop offset="0" stop-color="#2c8df0" />
      <stop offset="1" stop-color="#16a085" />
    </linearGradient>
  </defs>
  <rect width="96" height="96" rx="22" fill="url(#bg)" />
  <path
    d="M20 38c0-8.8 7.2-16 16-16h18c8.8 0 16 7.2 16 16v4c0 8.8-7.2 16-16 16H43.8L30 70v-13.2C24.2 54.4 20 48.7 20 42v-4Z"
    fill="#ffffff"
    opacity="0.92"
  />
  <path d="M30 39h27" stroke="#59758f" stroke-width="5" stroke-linecap="round" />
  <path d="M30 50h17" stroke="#8aa0b4" stroke-width="5" stroke-linecap="round" />
  <path
    d="M50 66h18.4l-6.7-6.7 6.2-6.2L85 70.2 67.9 87.3l-6.2-6.2 6.7-6.7H50v-8.4Z"
    fill="url(#mark)"
  />
</svg>
